<svg width="37" height="53" fill="none" xmlns="http://www.w3.org/2000/svg"><path fill-rule="evenodd" clip-rule="evenodd" d="M18.5 0l-4.869 14.304 2.8-1.476v13.464H9.207l-2.004-7.617 2.917.44L0 7.567l6.025 22.903h10.407v6.72l-2.515 2.54 2.515 2.54V53l4.137-4.17v-6.558l2.515-2.54-2.515-2.541v-6.72h10.406L37 7.568 26.881 19.114l2.917-.439-2.004 7.617H20.57V12.828l2.8 1.476L18.5 0z" fill="#ADACAC"/><path fill-rule="evenodd" clip-rule="evenodd" d="M28.313 17.683l2.28-.341-2.332 8.807h-8.22V11.264l2.407 1.26L18.5 1l-3.948 11.523 2.406-1.259V26.15H8.74l-2.332-8.807 2.28.34L1 8.968l5.368 20.277h10.59v7.478l-2.305 2.315 2.305 2.314V51l3.084-3.098v-6.55l2.305-2.315-2.305-2.315v-7.478h10.59L36 8.967l-7.688 8.716z" fill="#0D2A72"/><path fill-rule="evenodd" clip-rule="evenodd" d="M24.77 37.689c-.166 0-.27.098-.27.357v.39h-.492v-.353c0-.581.265-.913.776-.913s.776.332.776.913c0 1.142-1.036 1.568-1.036 2.165 0 .026 0 .052.004.078h.985v.519h-1.505v-.447c0-1.069 1.031-1.246 1.031-2.294 0-.327-.103-.415-.269-.415zM26.454 40.01c0 .259.104.357.27.357.165 0 .27-.098.27-.358v-1.962c0-.26-.105-.358-.27-.358-.166 0-.27.098-.27.358v1.962zm-.52-1.927c0-.581.279-.914.79-.914.51 0 .79.333.79.914v1.89c0 .581-.28.913-.79.913-.511 0-.79-.332-.79-.913v-1.89zM27.793 37.668c.402 0 .492-.213.572-.457h.35v3.634h-.52v-2.773h-.402v-.404zM29.832 39.355v.655c0 .259.104.352.27.352.165 0 .27-.093.27-.352v-.655c0-.26-.105-.358-.27-.358-.166 0-.27.098-.27.358zm-.52-1.241c0-.612.255-.944.794-.944.511 0 .776.332.776.913v.093h-.492v-.13c0-.259-.104-.357-.27-.357-.184 0-.288.098-.288.446v.665a.493.493 0 0 1 .482-.323c.384 0 .578.297.578.832v.664c0 .58-.28.913-.79.913-.512 0-.79-.332-.79-.913v-1.86zM30.99 35.351h-8.572l.541.597h8.03v-.597zM30.99 42.693h-8.572l.541-.597h8.03v.597zM6.111 35.351h8.571l-.54.597h-8.03v-.597zM6.111 42.693h8.571l-.54-.597h-8.03v.597zM6.111 37.16h1.654v.534h-.56v3.202h-.534v-3.202h-.56v-.534zM9.145 39.407l-.165.341v1.148h-.535V37.16h.535v1.628l.7-1.628h.535l-.744 1.665.744 2.07h-.55l-.52-1.488zM11.935 38.078c0-.336-.107-.427-.277-.427-.17 0-.282.102-.282.369v.304h-.49v-.278c0-.597.262-.928.787-.928s.797.341.797.939v.096c0 .4-.116.65-.374.768.268.128.374.406.374.784V40c0 .598-.272.94-.797.94s-.798-.342-.798-.94v-.41h.506v.448c0 .267.107.367.277.367.17 0 .277-.09.277-.42v-.295c0-.346-.107-.474-.35-.474h-.131v-.534h.16c.2 0 .321-.096.321-.395v-.208z" fill="#ADACAC"/></svg>